<svg width="24" height="24" viewBox="0 0 24 24" fill="none" xmlns="http://www.w3.org/2000/svg">
<path d="M3.75003 21.2355H3.74455H3.73683H3.72921H3.72169H3.71426H3.70693H3.69969H3.69254H3.6855H3.67855H3.6717H3.66494H3.65829H3.65173H3.64527H3.6389H3.63264H3.62648H3.62042H3.61445H3.60859H3.60283H3.59717H3.59161H3.58615H3.5808H3.57554H3.57039H3.56535H3.5604H3.55556H3.55083H3.5462H3.54167H3.53725H3.53293H3.52873H3.52462H3.52062H3.51673H3.51295H3.50928H3.50571H3.50225H3.4989H3.49565H3.49252H3.4895H3.48658H3.48378H3.48109H3.47851H3.47603H3.47367H3.47143H3.46929H3.46727H3.46536H3.46356H3.46188H3.46031H3.45885H3.45751H3.45628H3.45517H3.45418H3.4533H3.45254H3.45189H3.45136H3.45095H3.45065H3.45047L3.45047 21.262L3.00016 21.2658H3.00012L3.75003 21.2355ZM3.75003 21.2355H3.75236H3.76026H3.76825H3.77634H3.78452H3.7928H3.80116H3.80962H3.81817H3.82681H3.83554H3.84436H3.85327H3.86227H3.87137H3.88054H3.88981H3.89917H3.90861H3.91815H3.92777H3.93747H3.94727H3.95715H3.96711H3.97717H3.9873H3.99753H4.00783H4.01823H4.0287H4.03926H4.0499H4.06063H4.07144H4.08233H4.0933H4.10436H4.11549H4.12671H4.13801H4.14939H4.16084H4.17238H4.184H4.1957H4.20747H4.21932H4.23126H4.24326H4.25535H4.26751H4.27975H4.29207H4.30446H4.31693H4.32948H4.3421H4.35479H4.36756H4.3804H4.39331H4.4063H4.41936H4.4325H4.44571H4.45899H4.47234H4.48576H4.49925H4.51281H4.52645H4.54015H4.55393H4.56777H4.58168H4.59566H4.60971H4.62383H4.63801H4.65226H4.66658H4.68097H4.69542H4.70994H4.72452H4.73917H4.75388H4.76866H4.78351H4.79841H4.81338H4.82842H4.84351H4.85867H4.8739H4.88918H4.90452H4.91993H4.9354H4.95093H4.96651H4.98216H4.99787H5.01364H5.02947H5.04535H5.06129H5.07729H5.09335H5.10947H5.12564H5.14187H5.15816H5.1745H5.1909H5.20735H5.22386H5.24042H5.25704H5.27371H5.29043H5.30721H5.32404H5.34092H5.35786H5.37485H5.39188H5.40897H5.42611H5.44331H5.46055H5.47784H5.49518H5.51257H5.53001H5.5475H5.56504H5.58262H5.60025H5.61793H5.63566H5.65343H5.67125H5.68911H5.70702H5.72498H5.74298H5.76102H5.77911H5.79725H5.81542H5.83364H5.85191H5.87021H5.88856H5.90695H5.92538H5.94385H5.96236H5.98092H5.99951H6.01815H6.03682H6.05553H6.07428H6.09307H6.1119H6.13077H6.14967H6.16861H6.18759H6.2066H6.22565H6.24474H6.26386H6.28302H6.30221H6.32144H6.3407H6.35999H6.37932H6.39868H6.41807H6.4375H6.45696H6.47645H6.49597H6.51553H6.53511H6.55472H6.57437H6.59404H6.61375H6.63348H6.65324H6.67303H6.69285H6.7127H6.73257H6.75247H6.7724H6.79236H6.81234H6.83234H6.85238H6.87243H6.89251H6.91262H6.93275H6.95291H6.97308H6.99329H7.01351H7.03376H7.05402H7.07431H7.09463H7.11496H7.13531H7.15569H7.17608H7.1965H7.21693H7.23738H7.25785H7.27834H7.29885H7.31938H7.33992H7.36048H7.38106H7.40165H7.42226H7.44289H7.46353H7.48419H7.50486H7.52554H7.54624H7.56696H7.58768H7.60842H7.62917H7.64994H7.67072H7.69151H7.71231H7.73312H7.75394H7.77477H7.79562H7.81647H7.83733H7.8582H7.87908H7.89997H7.92086H7.94177H7.96268H7.9836H8.00452H8.02546H8.04639H8.06734H8.08829H8.10924H8.1302H8.15116H8.17213H8.1931H8.21407H8.23505H8.25603H8.27701H8.298H8.31899H8.33997H8.36096H8.38195H8.40294H8.42393H8.44492H8.46591H8.4869H8.50788H8.52887H8.54985H8.57083H8.59181H8.61279H8.63376H8.65473H8.67569H8.69665H8.71761H8.73856H8.7595H8.78044H8.80138H8.82231H8.84323H8.86414H8.88505H8.90594H8.92684H8.94772H8.96859H8.98946H9.01031H9.03116H9.05199H9.07282H9.09363H9.11444H9.13523H9.15601H9.17678H9.19754H9.21828H9.23901H9.25973H9.28043H9.30112H9.3218H9.34246H9.36311H9.38374H9.40435H9.42495H9.44553H9.4661H9.48665H9.50718H9.52769H9.54819H9.56867H9.58913H9.60956H9.62999H9.65039H9.67077H9.69113H9.71147H9.73178H9.75208H9.77236H9.79261H9.81284H9.83305H9.85324H9.8734H9.89354H9.91365H9.93374H9.9538H9.97385H9.99386H10.0138H10.0338H10.0537H10.0737H10.0935H10.1134H10.1332H10.153H10.1728H10.1925H10.2122H10.2319H10.2516H10.2712H10.2908H10.3104H10.3299H10.3494H10.3689H10.3883H10.4077H10.4271H10.4464H10.4657H10.485H10.5042H10.5234H10.5426H10.5617H10.5808H10.5999H10.6189H10.6379H10.6569H10.6758H10.6947H10.7135H10.7323H10.7511H10.7698H10.7885H10.8071H10.8257H10.8443H10.8628H10.8813H10.8997H10.9182H10.9365H10.9548H10.9731H10.9913H11.0095H11.0277H11.0458H11.0638H11.0819H11.0998H11.1177H11.1356H11.1535H11.1712H11.189H11.2067H11.2243H11.2419H11.2595H11.277H11.2944H11.3118H11.3292H11.3465H11.3638H11.381H11.3981H11.4152H11.4323H11.4493H11.4662H11.4831H11.5H11.501C12.2606 21.2365 13.2034 21.2393 14.1724 21.2421C14.9745 21.2445 15.7944 21.2469 16.5432 21.2484C17.3715 21.2501 18.1134 21.2507 18.6521 21.249C18.8998 21.2482 19.1025 21.2469 19.25 21.245L19.25 21.2072C19.25 21.1709 19.2497 21.1164 19.2488 21.0458C19.2471 20.9046 19.2428 20.6996 19.2329 20.448C19.213 19.9437 19.1703 19.2581 19.0801 18.5281C18.9893 17.7947 18.8529 17.0361 18.6512 16.3786C18.444 15.7027 18.1937 15.2215 17.9287 14.9594C17.3016 14.3389 16.3106 13.9796 15.1035 13.7921C13.909 13.6065 12.6257 13.6058 11.5 13.6058C10.3743 13.6058 9.09148 13.6065 7.89744 13.7921C6.69085 13.9796 5.70022 14.3389 5.07312 14.9594C4.80809 15.2216 4.55769 15.7028 4.35024 16.3787C4.14843 17.0363 4.01175 17.7949 3.92083 18.5283C3.83033 19.2583 3.78748 19.9439 3.76738 20.4482C3.75736 20.6998 3.75305 20.9049 3.75124 21.046C3.75034 21.1166 3.75006 21.1711 3.75001 21.2074L3.75003 21.2355ZM7.61314 6.65983C7.61314 5.62168 8.02354 4.6268 8.75288 3.89385C9.4821 3.16102 10.4703 2.75 11.5 2.75C12.5297 2.75 13.5179 3.16102 14.2471 3.89385C14.9765 4.6268 15.3869 5.62169 15.3869 6.65983C15.3869 7.69797 14.9765 8.69285 14.2471 9.42581C13.5179 10.1586 12.5297 10.5697 11.5 10.5697C10.4703 10.5697 9.4821 10.1586 8.75288 9.42581C8.02354 8.69285 7.61314 7.69797 7.61314 6.65983Z" stroke="black" stroke-width="1.5"/>
</svg>
