<svg width="24" height="24" viewBox="0 0 24 24" fill="none" xmlns="http://www.w3.org/2000/svg">
<path fill-rule="evenodd" clip-rule="evenodd" d="M6.86314 6.65983C6.86314 5.42397 7.35167 4.23872 8.22125 3.36483C9.09083 2.49094 10.2702 2 11.5 2C12.7298 2 13.9092 2.49094 14.7788 3.36483C15.6483 4.23872 16.1369 5.42397 16.1369 6.65983C16.1369 7.89569 15.6483 9.08094 14.7788 9.95482C13.9092 10.8287 12.7298 11.3197 11.5 11.3197C10.2702 11.3197 9.09083 10.8287 8.22125 9.95482C7.35167 9.08094 6.86314 7.89569 6.86314 6.65983ZM3.00012 21.2658C3.00012 21.2658 2.95536 15.9997 4.54562 14.4262C6.13588 12.8528 9.26834 12.8558 11.5 12.8558C13.7317 12.8558 16.8659 12.8528 18.4562 14.4262C20.0464 15.9997 19.9999 21.2658 19.9999 21.2658C20.0026 21.4168 19.9614 21.5652 19.8814 21.6931C19.8014 21.8209 19.6861 21.9225 19.5496 21.9855C19.4831 22.0162 14.2782 21.9893 11.5 21.9855C8.62926 21.9855 3.45041 21.9855 3.45041 21.9855C3.31387 21.9225 3.19856 21.8209 3.11858 21.6931C3.03861 21.5652 2.99744 21.4168 3.00012 21.2658Z" fill="black"/>
</svg>
