<svg width="48" height="48" viewBox="0 0 48 48" fill="none" xmlns="http://www.w3.org/2000/svg">
<path d="M34.018 7.5H13.9819C12.2627 7.50012 10.614 8.18318 9.39839 9.39892C8.18279 10.6147 7.49992 12.2635 7.5 13.9827V34.0173C7.49992 35.7365 8.18279 37.3853 9.39839 38.6011C10.614 39.8168 12.2627 40.4999 13.9819 40.5H34.018C35.7373 40.4999 37.386 39.8168 38.6016 38.6011C39.8172 37.3853 40.5001 35.7365 40.5 34.0173V13.9827C40.5001 12.2635 39.8172 10.6147 38.6016 9.39892C37.386 8.18318 35.7373 7.50012 34.018 7.5ZM24 13.5938C24.445 13.5938 24.88 13.7257 25.25 13.9729C25.62 14.2202 25.9084 14.5716 26.0787 14.9827C26.249 15.3938 26.2936 15.8462 26.2068 16.2827C26.12 16.7192 25.9057 17.1201 25.591 17.4347C25.2763 17.7494 24.8754 17.9637 24.439 18.0505C24.0025 18.1373 23.5501 18.0928 23.139 17.9225C22.7278 17.7522 22.3764 17.4638 22.1292 17.0938C21.882 16.7238 21.75 16.2888 21.75 15.8438C21.75 15.247 21.9871 14.6747 22.409 14.2528C22.831 13.8308 23.4033 13.5938 24 13.5938ZM27.0938 34.5H21.0938C20.6959 34.5 20.3144 34.342 20.0331 34.0607C19.7518 33.7794 19.5938 33.3978 19.5938 33C19.5938 32.6022 19.7518 32.2206 20.0331 31.9393C20.3144 31.658 20.6959 31.5 21.0938 31.5H22.5V22.5H21.0938C20.6959 22.5 20.3144 22.342 20.0331 22.0607C19.7518 21.7794 19.5938 21.3978 19.5938 21C19.5938 20.6022 19.7518 20.2206 20.0331 19.9393C20.3144 19.658 20.6959 19.5 21.0938 19.5H25.5V31.5H27.0938C27.4916 31.5 27.8731 31.658 28.1544 31.9393C28.4357 32.2206 28.5938 32.6022 28.5938 33C28.5938 33.3978 28.4357 33.7794 28.1544 34.0607C27.8731 34.342 27.4916 34.5 27.0938 34.5Z" fill="black"/>
</svg>
