<svg width="48" height="48" viewBox="0 0 48 48" fill="none" xmlns="http://www.w3.org/2000/svg">
<path d="M40.5 13.9827C40.5 10.4027 37.5981 7.5 34.018 7.5H13.9819C10.4019 7.5 7.5 10.4027 7.5 13.9827V34.0173C7.5 37.5973 10.4019 40.5 13.9819 40.5H34.018C37.5981 40.5 40.5 37.5973 40.5 34.0173V13.9827ZM37.5 34.0173C37.5 35.9406 35.9413 37.5 34.018 37.5H13.9819C12.0586 37.5 10.5 35.9406 10.5 34.0173V13.9827C10.5 12.0594 12.0586 10.5 13.9819 10.5H34.018C35.9413 10.5 37.5 12.0594 37.5 13.9827V34.0173ZM28.5938 33C28.5938 33.8283 27.9228 34.5 27.0938 34.5H21.0938C20.2647 34.5 19.5938 33.8283 19.5938 33C19.5938 32.1717 20.2647 31.5 21.0938 31.5H22.5V22.5H21.0938C20.2647 22.5 19.5938 21.8283 19.5938 21C19.5938 20.1717 20.2647 19.5 21.0938 19.5H25.5V31.5H27.0938C27.9228 31.5 28.5938 32.1717 28.5938 33ZM21.75 15.8438C21.75 14.6009 22.7578 13.5938 24 13.5938C25.2421 13.5938 26.25 14.6009 26.25 15.8438C26.25 17.0866 25.2421 18.0938 24 18.0938C22.7578 18.0938 21.75 17.0866 21.75 15.8438Z" fill="black"/>
</svg>
