<svg width="24" height="24" viewBox="0 0 24 24" fill="none" xmlns="http://www.w3.org/2000/svg">
<path d="M21.75 6.75C21.75 15.034 15.034 21.75 6.75 21.75H4.5C3.90326 21.75 3.33097 21.5129 2.90901 21.091C2.48705 20.669 2.25 20.0967 2.25 19.5V18.128C2.25 17.612 2.601 17.162 3.102 17.037L7.525 15.931C7.965 15.821 8.427 15.986 8.698 16.348L9.668 17.641C9.95 18.017 10.437 18.183 10.878 18.021C12.5151 17.4191 14.0018 16.4686 15.2352 15.2352C16.4686 14.0018 17.4191 12.5151 18.021 10.878C18.183 10.437 18.017 9.95 17.641 9.668L16.348 8.698C15.985 8.427 15.821 7.964 15.931 7.525L17.037 3.102C17.0979 2.85869 17.2383 2.6427 17.4359 2.48834C17.6336 2.33397 17.8772 2.25008 18.128 2.25H19.5C20.0967 2.25 20.669 2.48705 21.091 2.90901C21.5129 3.33097 21.75 3.90326 21.75 4.5V6.75Z" stroke="black" stroke-width="1.5" stroke-linecap="round" stroke-linejoin="round"/>
</svg>
