<svg width="48" height="48" viewBox="0 0 48 48" fill="none" xmlns="http://www.w3.org/2000/svg">
<path d="M33.3926 40C35.5345 40 36.7188 40 38.7784 37.4966C40.6938 35.169 40.0759 34.2172 38.8402 32.9552C37.4911 31.5586 33.6397 28.9931 31.4051 28.9931C31.0549 28.9931 30.7769 29.0655 30.5812 29.1897C28.6658 30.4207 27.6566 31 26.7401 31C25.8545 31 25.2469 30.4724 24.4231 29.7483L24.3098 29.6448C22.3738 27.9379 21.9516 27.5035 21.1895 26.7069L21.0042 26.5104C20.8703 26.3759 20.757 26.2517 20.6437 26.1379C19.6345 25 16.1023 21.1104 16.02 20.1069C15.9273 19.0724 16.504 18.069 17.5955 16.5897C19.1402 14.4793 17.0909 11.6241 14.465 8.39655L14.362 8.27241C13.6617 7.41379 12.9306 7 12.1067 7C11.1267 7 10.2277 7.57946 9.68042 7.93217L9.66613 7.94138C9.60435 7.97241 9.55286 8.01379 9.50137 8.04483C8.40979 8.72758 7.60655 9.66896 7.3388 10.5483C6.8342 12.1931 6.55616 14.1897 9.03796 18.7517C11.3859 23.0655 13.5176 25.9724 16.9056 29.4586C20.1082 32.7586 21.5293 33.8241 24.7217 36.1414C28.0582 38.5517 31.3021 40 33.3926 40Z" fill="black"/>
<path fill-rule="evenodd" clip-rule="evenodd" d="M30.5812 29.1897C30.7769 29.0655 31.0549 28.9931 31.4051 28.9931C33.6397 28.9931 37.4911 31.5586 38.8402 32.9552C40.0759 34.2172 40.6938 35.169 38.7784 37.4966C36.7188 40 35.5345 40 33.3926 40C31.3021 40 28.0582 38.5517 24.7217 36.1414C21.5294 33.8241 20.1082 32.7586 16.9056 29.4586C13.5176 25.9724 11.3859 23.0655 9.03797 18.7517C6.55617 14.1897 6.83422 12.1931 7.33882 10.5483C7.60656 9.66896 8.4098 8.72758 9.50138 8.04483C9.52063 8.03322 9.53988 8.02017 9.55967 8.00676C9.59281 7.9843 9.62746 7.96081 9.66615 7.94138L9.68044 7.93217C10.2277 7.57946 11.1267 7 12.1068 7C12.9306 7 13.6617 7.41379 14.362 8.27241L14.465 8.39655C17.091 11.6241 19.1402 14.4793 17.5956 16.5897C16.504 18.069 15.9273 19.0724 16.02 20.1069C16.0963 21.0361 19.1309 24.4404 20.3808 25.8426C20.4807 25.9546 20.5691 26.0538 20.6437 26.1379C20.698 26.1925 20.7523 26.2494 20.8088 26.3086C20.8703 26.3731 20.9344 26.4403 21.0042 26.5104L21.1895 26.7069C21.9516 27.5035 22.3738 27.9379 24.3098 29.6448L24.4231 29.7483C25.2469 30.4724 25.8545 31 26.7401 31C27.6566 31 28.6658 30.4207 30.5812 29.1897ZM25.0904 29.0034C25.9733 29.7791 26.297 30 26.7401 30C26.9802 30 27.302 29.9265 27.8441 29.6594C28.392 29.3895 29.0775 28.9674 30.0406 28.3484L30.0455 28.3453C30.4483 28.0897 30.9298 27.9931 31.4051 27.9931C32.1351 27.9931 32.9236 28.1979 33.6724 28.48C34.4334 28.7667 35.2169 29.1577 35.9554 29.5848C37.4165 30.4298 38.7977 31.4728 39.5568 32.2577C40.1543 32.868 40.877 33.6499 40.9859 34.7256C41.0973 35.8257 40.5508 36.9165 39.5505 38.132C38.4669 39.4491 37.5227 40.2213 36.4724 40.6215C35.4775 41.0006 34.4824 41.0003 33.4794 41C33.4504 41 33.4215 41 33.3926 41C32.1458 41 30.6636 40.5767 29.1175 39.8881C27.5536 39.1915 25.8489 38.1893 24.1361 36.952L24.1343 36.9507C20.9147 34.6136 19.4445 33.5105 16.1885 30.1556M25.0904 29.0034L24.9777 28.9005L24.9711 28.8947C23.054 27.2045 22.6517 26.7887 21.9145 26.0181C21.9137 26.0173 21.9129 26.0165 21.9121 26.0156L21.7224 25.8144L21.7129 25.8049C21.6543 25.746 21.5992 25.6885 21.5398 25.6261L21.5304 25.6163C21.4818 25.5654 21.4283 25.5093 21.3735 25.4537C21.3012 25.3722 21.2176 25.2784 21.1246 25.1741C20.5483 24.5276 19.6113 23.4764 18.7568 22.4369C18.2538 21.8252 17.7945 21.2355 17.4604 20.7476C17.2927 20.5027 17.1686 20.3008 17.0881 20.146C17.0391 20.0519 17.0197 20.0002 17.0133 19.9834C16.974 19.3868 17.298 18.6771 18.4002 17.1834L18.4025 17.1803C19.4911 15.693 19.2135 14.0101 18.4997 12.4876C17.7923 10.9787 16.5443 9.36778 15.2407 7.76544L15.1342 7.63702C14.3154 6.63429 13.3262 6 12.1068 6C10.8278 6 9.71648 6.71824 9.18803 7.05977C9.17766 7.06647 9.16752 7.07302 9.1576 7.07943C9.09809 7.11263 9.05114 7.14368 9.02346 7.16222L8.98371 7.18905C8.98244 7.1899 8.98144 7.19057 8.98067 7.19107L8.97809 7.19263L8.97109 7.19701C7.7494 7.96115 6.7427 9.07433 6.38251 10.2559C6.10441 11.1626 5.87369 12.2272 6.07806 13.694C6.2782 15.1305 6.88597 16.8885 8.15954 19.2296C10.5501 23.6218 12.7359 26.6029 16.1885 30.1556" fill="black"/>
</svg>
