<svg width="24" height="24" viewBox="0 0 24 24" fill="none" xmlns="http://www.w3.org/2000/svg">
<path fill-rule="evenodd" clip-rule="evenodd" d="M22.5 4.5C22.5 3.70435 22.1839 2.94129 21.6213 2.37868C21.0587 1.81607 20.2956 1.5 19.5 1.5H18.128C17.268 1.5 16.518 2.086 16.309 2.92L15.204 7.343C15.1145 7.701 15.1325 8.07746 15.256 8.42522C15.3794 8.77299 15.6028 9.07659 15.898 9.298L17.191 10.268C17.326 10.369 17.355 10.517 17.317 10.62C16.7526 12.1549 15.8614 13.5487 14.7051 14.7051C13.5487 15.8614 12.1549 16.7526 10.62 17.317C10.517 17.355 10.37 17.326 10.268 17.191L9.298 15.898C9.07659 15.6028 8.77299 15.3794 8.42522 15.256C8.07746 15.1325 7.701 15.1145 7.343 15.204L2.92 16.309C2.086 16.518 1.5 17.268 1.5 18.129V19.5C1.5 20.2956 1.81607 21.0587 2.37868 21.6213C2.94129 22.1839 3.70435 22.5 4.5 22.5H6.75C15.448 22.5 22.5 15.448 22.5 6.75V4.5Z" fill="black"/>
</svg>
