<svg width="48" height="48" viewBox="0 0 48 48" fill="none" xmlns="http://www.w3.org/2000/svg">
<path d="M38.9906 31.4531C37.6219 30.0469 33.7313 27.4125 31.1813 27.4125C30.5906 27.4125 30.075 27.5438 29.6531 27.8157C28.4063 28.6125 27.4125 29.2313 26.9344 29.2313C26.6719 29.2313 26.3906 28.9969 25.7719 28.4625L25.6688 28.3688C23.9531 26.8781 23.5875 26.4938 22.9219 25.8L22.7531 25.6219C22.6313 25.5 22.5281 25.3875 22.425 25.2844C21.8438 24.6844 21.4219 24.2532 19.9313 22.5656L19.8656 22.4906C19.1531 21.6844 18.6844 21.1594 18.6563 20.775C18.6281 20.4 18.9563 19.7906 19.7906 18.6563C20.8031 17.2875 20.8406 15.6 19.9125 13.6406C19.1719 12.0938 17.9625 10.6125 16.8938 9.3094L16.8 9.1969C15.8813 8.0719 14.8125 7.5094 13.6219 7.5094C12.3 7.5094 11.2031 8.2219 10.6219 8.5969C10.575 8.62502 10.5281 8.66252 10.4813 8.69065C9.17814 9.51565 8.23126 10.65 7.87501 11.8031C7.34064 13.5375 6.98439 15.7875 9.54376 20.4657C11.7563 24.5157 13.7625 27.2344 16.95 30.5063C19.95 33.5813 21.2813 34.575 24.2625 36.7313C27.5813 39.1313 30.7688 40.5094 33 40.5094C35.0719 40.5094 36.7031 40.5094 39.0281 37.7063C41.4656 34.7625 40.4531 32.9625 38.9906 31.4531ZM37.9125 36.6938C36.0375 38.9625 34.9594 38.9625 33.0094 38.9625C31.1063 38.9625 28.1531 37.65 25.1156 35.4656C22.2094 33.3656 20.9156 32.4 18 29.4094C14.9156 26.25 12.975 23.6157 10.8375 19.7063C8.57814 15.5719 8.83126 13.7625 9.29064 12.2719C9.53439 11.475 10.2656 10.6219 11.2594 10.0031C11.3063 9.97502 11.3531 9.93752 11.4094 9.9094C11.9063 9.59065 12.7313 9.05627 13.6313 9.05627C14.3813 9.05627 15.0469 9.43127 15.6844 10.2094L15.7781 10.3219C18.1688 13.2469 20.0344 15.8344 18.6281 17.7469C17.6344 19.0875 17.1094 19.9969 17.1938 20.9344C17.2688 21.8438 17.8781 22.5282 18.7969 23.5594L18.8625 23.6344C20.3719 25.3406 20.8031 25.7906 21.4031 26.4C21.5063 26.5031 21.6094 26.6157 21.7313 26.7375L21.9 26.9156C22.5938 27.6375 22.9781 28.0313 24.7406 29.5781L24.8438 29.6719C25.5938 30.3281 26.1469 30.8063 26.9531 30.8063C27.7875 30.8063 28.7063 30.2813 30.45 29.1656C30.6281 29.0532 30.8813 28.9875 31.2 28.9875C33.2344 28.9875 36.7406 31.3125 37.9688 32.5781C39.0938 33.7219 39.6563 34.5844 37.9125 36.6938Z" fill="black" stroke="black" stroke-width="2"/>
</svg>
