<svg width="64" height="64" viewBox="0 0 64 64" fill="none" xmlns="http://www.w3.org/2000/svg">
<rect x="0.5" y="0.5" width="63" height="63" rx="5.5" fill="#121212"/>
<rect x="0.5" y="0.5" width="63" height="63" rx="5.5" stroke="#C0C0C0"/>
<path fill-rule="evenodd" clip-rule="evenodd" d="M47.0768 27.1139C47.5405 26.6501 47.2121 25.8572 46.5562 25.8572H39.8315C39.4249 25.8572 39.0953 25.5276 39.0953 25.121V12.7362C39.0953 12.3296 38.7657 12 38.3592 12H25.9743C25.5677 12 25.2381 12.3296 25.2381 12.7362V25.121C25.2381 25.5276 24.9085 25.8572 24.502 25.8572H17.7773C17.1214 25.8572 16.793 26.6501 17.2567 27.1139L31.6462 41.5034C31.9337 41.7908 32.3998 41.7908 32.6873 41.5034L47.0768 27.1139ZM16.7362 46.6431C16.3296 46.6431 16 46.9727 16 47.3792V50.5259C16 50.9325 16.3296 51.2621 16.7362 51.2621H47.5973C48.0039 51.2621 48.3335 50.9325 48.3335 50.5259V47.3792C48.3335 46.9727 48.0039 46.6431 47.5973 46.6431H16.7362Z" fill="#C0C0C0"/>
</svg>
