<svg width="24" height="24" viewBox="0 0 24 24" fill="none" xmlns="http://www.w3.org/2000/svg">
<path d="M11.8037 3C11.1957 3 10.7007 3.49469 10.7007 4.10299V12.3113L9.22991 10.8408C8.71935 10.3444 8.06337 10.4708 7.68207 10.8521C7.3002 11.2334 7.17366 11.8875 7.67345 12.4034L11.0201 15.7504C11.2194 15.9566 11.4924 16.0716 11.7892 16.074C11.7924 16.074 11.7951 16.074 11.7983 16.074C12.0945 16.074 12.3805 15.9574 12.5836 15.7538L15.9372 12.4002C16.4327 11.8872 16.3061 11.2328 15.9254 10.8515C15.5446 10.4705 14.8903 10.345 14.3743 10.8437L12.9067 12.3113V4.10299C12.9067 3.49469 12.4118 3 11.8037 3Z" fill="#121212"/>
<path d="M5.10299 13.871C4.49496 13.871 4 14.3657 4 14.974V16.1944C4 18.6501 5.99757 20.6479 8.45345 20.6479H15.1543C17.6102 20.6479 19.6077 18.6501 19.6077 16.1944V14.974C19.6077 14.3657 19.1128 13.871 18.5047 13.871C17.8967 13.871 17.4017 14.3657 17.4017 14.974V16.1944C17.4017 17.4337 16.3935 18.4419 15.1543 18.4419H8.45345C7.21418 18.4419 6.20598 17.4337 6.20598 16.1944V14.974C6.20598 14.3657 5.71105 13.871 5.10299 13.871Z" fill="#121212"/>
</svg>
