<svg width="80" height="80" viewBox="0 0 80 80" fill="none" xmlns="http://www.w3.org/2000/svg">
<g clip-path="url(#clip0_198_76)">
<path d="M68.3382 0H11.6618C5.22117 0 0 5.22117 0 11.6618V68.3382C0 74.7788 5.22117 80 11.6618 80H68.3382C74.7788 80 80 74.7788 80 68.3382V11.6618C80 5.22117 74.7788 0 68.3382 0Z" fill="#020202"/>
<path d="M30.0285 69.9123C31.3379 69.9123 32.6344 69.6544 33.8441 69.1533C35.0539 68.6523 36.153 67.9178 37.0789 66.9919C38.0048 66.0661 38.7392 64.9669 39.2403 63.7572C39.7414 62.5474 39.9993 61.2509 39.9993 59.9415V49.9706H30.0285C27.384 49.9706 24.8479 51.0211 22.978 52.891C21.1081 54.7609 20.0576 57.2971 20.0576 59.9415C20.0576 62.5859 21.1081 65.122 22.978 66.9919C24.8479 68.8618 27.384 69.9123 30.0285 69.9123Z" fill="#0ACF83"/>
<path d="M20.0576 39.9998C20.0576 37.3553 21.1081 34.8192 22.978 32.9493C24.8479 31.0794 27.384 30.0289 30.0285 30.0289H39.9993V49.9706H30.0285C27.384 49.9706 24.8479 48.9201 22.978 47.0502C21.1081 45.1803 20.0576 42.6442 20.0576 39.9998Z" fill="#A259FF"/>
<path d="M20.0576 20.0581C20.0576 17.4137 21.1081 14.8776 22.978 13.0077C24.8479 11.1378 27.384 10.0873 30.0285 10.0873H39.9993V30.029H30.0285C27.384 30.029 24.8479 28.9785 22.978 27.1086C21.1081 25.2387 20.0576 22.7026 20.0576 20.0581Z" fill="#F24E1E"/>
<path d="M40 10.1456H49.9708C52.6153 10.1456 55.1514 11.1961 57.0213 13.066C58.8912 14.9359 59.9417 17.472 59.9417 20.1164C59.9417 22.7608 58.8912 25.297 57.0213 27.1669C55.1514 29.0368 52.6153 30.0873 49.9708 30.0873H40V10.1456Z" fill="#FF7262"/>
<path d="M59.9417 39.9998C59.9417 41.9718 59.3569 43.8996 58.2613 45.5393C57.1657 47.179 55.6085 48.457 53.7865 49.2116C51.9646 49.9663 49.9598 50.1638 48.0256 49.779C46.0915 49.3943 44.3148 48.4447 42.9204 47.0502C41.526 45.6558 40.5763 43.8791 40.1916 41.945C39.8069 40.0108 40.0043 38.006 40.759 36.1841C41.5137 34.3622 42.7916 32.8049 44.4313 31.7093C46.071 30.6137 47.9988 30.0289 49.9708 30.0289C52.6153 30.0289 55.1514 31.0794 57.0213 32.9493C58.8912 34.8192 59.9417 37.3553 59.9417 39.9998Z" fill="#1ABCFE"/>
</g>
<defs>
<clipPath id="clip0_198_76">
<rect width="80" height="80" fill="white"/>
</clipPath>
</defs>
</svg>
