<svg width="64" height="64" viewBox="0 0 64 64" fill="none" xmlns="http://www.w3.org/2000/svg">
<rect x="0.5" y="0.5" width="63" height="63" rx="5.5" fill="#121212"/>
<rect x="0.5" y="0.5" width="63" height="63" rx="5.5" stroke="#C0C0C0"/>
<path fill-rule="evenodd" clip-rule="evenodd" d="M47.3 22.5C46.1954 22.5 45.3 23.3954 45.3 24.5V39.5C45.3 40.6046 46.1954 41.5 47.3 41.5H49.1C50.1493 41.5 51 42.3507 51 43.4C51 44.4493 50.1493 45.3 49.1 45.3H47.3C46.1954 45.3 45.3 46.1954 45.3 47.3V49.1C45.3 50.1493 44.4493 51 43.4 51C42.3507 51 41.5 50.1493 41.5 49.1V47.3C41.5 46.1954 40.6046 45.3 39.5 45.3H24.5C23.3954 45.3 22.5 46.1954 22.5 47.3V49.1C22.5 50.1493 21.6493 51 20.6 51C19.5507 51 18.7 50.1493 18.7 49.1V47.3C18.7 46.1954 17.8046 45.3 16.7 45.3H14.9C13.8507 45.3 13 44.4493 13 43.4C13 42.3507 13.8507 41.5 14.9 41.5H16.7C17.8046 41.5 18.7 40.6046 18.7 39.5V24.5C18.7 23.3954 17.8046 22.5 16.7 22.5H14.9C13.8507 22.5 13 21.6493 13 20.6C13 19.5507 13.8507 18.7 14.9 18.7H16.7C17.8046 18.7 18.7 17.8046 18.7 16.7V14.9C18.7 13.8507 19.5507 13 20.6 13C21.6493 13 22.5 13.8507 22.5 14.9V16.7C22.5 17.8046 23.3954 18.7 24.5 18.7H39.5C40.6046 18.7 41.5 17.8046 41.5 16.7V14.9C41.5 13.8507 42.3507 13 43.4 13C44.4493 13 45.3 13.8507 45.3 14.9V16.7C45.3 17.8046 46.1954 18.7 47.3 18.7H49.1C50.1493 18.7 51 19.5507 51 20.6C51 21.6493 50.1493 22.5 49.1 22.5H47.3ZM41.5 24.5C41.5 23.3954 40.6046 22.5 39.5 22.5H24.5C23.3954 22.5 22.5 23.3954 22.5 24.5V39.5C22.5 40.6046 23.3954 41.5 24.5 41.5H39.5C40.6046 41.5 41.5 40.6046 41.5 39.5V24.5Z" fill="#C0C0C0"/>
</svg>
