<svg width="24" height="24" viewBox="0 0 24 24" fill="none" xmlns="http://www.w3.org/2000/svg">
<path fill-rule="evenodd" clip-rule="evenodd" d="M3 5.875C3 5.64294 3.07902 5.42038 3.21967 5.25628C3.36032 5.09219 3.55109 5 3.75 5H12H20.25C20.4489 5 20.6397 5.09219 20.7803 5.25628C20.921 5.42038 21 5.64294 21 5.875C21 6.10706 20.921 6.32962 20.7803 6.49372C20.6397 6.65781 20.4489 6.75 20.25 6.75H3.75C3.55109 6.75 3.36032 6.65781 3.21967 6.49372C3.07902 6.32962 3 6.10706 3 5.875ZM3 12C3 11.7679 3.07902 11.5454 3.21967 11.3813C3.36032 11.2172 3.55109 11.125 3.75 11.125H20.25C20.4489 11.125 20.6397 11.2172 20.7803 11.3813C20.921 11.5454 21 11.7679 21 12C21 12.2321 20.921 12.4546 20.7803 12.6187C20.6397 12.7828 20.4489 12.875 20.25 12.875H3.75C3.55109 12.875 3.36032 12.7828 3.21967 12.6187C3.07902 12.4546 3 12.2321 3 12ZM3 18.125C3 17.8929 3.07902 17.6704 3.21967 17.5063C3.36032 17.3422 3.55109 17.25 3.75 17.25H20.25C20.4489 17.25 20.6397 17.3422 20.7803 17.5063C20.921 17.6704 21 17.8929 21 18.125C21 18.3571 20.921 18.5796 20.7803 18.7437C20.6397 18.9078 20.4489 19 20.25 19H3.75C3.55109 19 3.36032 18.9078 3.21967 18.7437C3.07902 18.5796 3 18.3571 3 18.125Z" fill="black" stroke="black"/>
</svg>
