<svg width="64" height="64" viewBox="0 0 64 64" fill="none" xmlns="http://www.w3.org/2000/svg">
<rect x="0.5" y="0.5" width="63" height="63" rx="5.5" fill="#121212"/>
<rect x="0.5" y="0.5" width="63" height="63" rx="5.5" stroke="#C0C0C0"/>
<path d="M46.0625 20H18.9375C18.683 19.9999 18.431 20.045 18.1959 20.1329C17.9607 20.2208 17.7471 20.3497 17.5672 20.5123C17.3872 20.6748 17.2445 20.8678 17.1472 21.0802C17.0499 21.2925 16.9999 21.5202 17 21.75V39.25C16.9999 39.4799 17.0499 39.7075 17.1472 39.9199C17.2445 40.1322 17.3872 40.3252 17.5672 40.4877C17.7471 40.6503 17.9607 40.7792 18.1959 40.8671C18.431 40.955 18.683 41.0001 18.9375 41H24.75V46.25C24.75 46.5961 24.8636 46.9345 25.0765 47.2223C25.2893 47.5101 25.5919 47.7344 25.946 47.8668C26.3 47.9993 26.6896 48.0339 27.0654 47.9663C27.4412 47.8988 27.7864 47.7321 28.0574 47.4873L35.2398 41H46.0625C46.317 41.0001 46.569 40.955 46.8041 40.8671C47.0393 40.7792 47.2529 40.6503 47.4328 40.4877C47.6128 40.3252 47.7555 40.1322 47.8528 39.9199C47.9501 39.7075 48.0001 39.4799 48 39.25V21.75C48.0001 21.5202 47.9501 21.2925 47.8528 21.0802C47.7555 20.8678 47.6128 20.6748 47.4328 20.5123C47.2529 20.3497 47.0393 20.2208 46.8041 20.1329C46.569 20.045 46.317 19.9999 46.0625 20ZM44.125 37.5H34.4375C34.1831 37.5 33.9311 37.5452 33.6961 37.6332C33.461 37.7212 33.2475 37.8501 33.0676 38.0127L28.625 42.0254V39.25C28.6251 39.0202 28.5751 38.7925 28.4778 38.5802C28.3805 38.3678 28.2378 38.1748 28.0578 38.0123C27.8779 37.8497 27.6643 37.7208 27.4291 37.6329C27.194 37.545 26.942 37.4999 26.6875 37.5H20.875V23.5H44.125V30.5V37.5Z" fill="#C0C0C0"/>
</svg>
