<svg width="64" height="64" viewBox="0 0 64 64" fill="none" xmlns="http://www.w3.org/2000/svg">
<rect x="0.5" y="0.5" width="63" height="63" rx="5.5" fill="#121212"/>
<rect x="0.5" y="0.5" width="63" height="63" rx="5.5" stroke="#C0C0C0"/>
<path fill-rule="evenodd" clip-rule="evenodd" d="M14.042 20.0417C14.042 17.8095 15.8515 16 18.0837 16H46.3753C48.6075 16 50.417 17.8095 50.417 20.0417V36.2083C50.417 38.4405 48.6075 40.25 46.3753 40.25H18.0837C15.8515 40.25 14.042 38.4405 14.042 36.2083V20.0417ZM18.0837 20.0417H46.3753V36.2083H18.0837V20.0417Z" fill="#C0C0C0"/>
<path d="M12.0208 44.2916C10.9048 44.2916 10 45.1964 10 46.3125C10 47.4286 10.9048 48.3333 12.0208 48.3333H52.4375C53.5536 48.3333 54.4583 47.4286 54.4583 46.3125C54.4583 45.1964 53.5536 44.2916 52.4375 44.2916H12.0208Z" fill="#C0C0C0"/>
</svg>
