<svg width="48" height="48" viewBox="0 0 48 48" fill="none" xmlns="http://www.w3.org/2000/svg">
<path d="M36.45 12.2106H24.832L24.24 10.4737C23.8562 9.45459 23.1443 8.57275 22.203 7.95037C21.2616 7.32799 20.1374 6.99587 18.986 7.00004H10.55C9.07805 7.00004 7.66638 7.549 6.62556 8.52616C5.58473 9.50333 5 10.8286 5 12.2106V34.7895C5 36.1714 5.58473 37.4967 6.62556 38.4739C7.66638 39.451 9.07805 40 10.55 40H36.45C37.922 40 39.3336 39.451 40.3744 38.4739C41.4153 37.4967 42 36.1714 42 34.7895V17.4211C42 16.0392 41.4153 14.7138 40.3744 13.7367C39.3336 12.7595 37.922 12.2106 36.45 12.2106ZM38.3 34.7895C38.3 35.2501 38.1051 35.6919 37.7581 36.0176C37.4112 36.3433 36.9407 36.5263 36.45 36.5263H10.55C10.0593 36.5263 9.5888 36.3433 9.24185 36.0176C8.89491 35.6919 8.7 35.2501 8.7 34.7895V12.2106C8.7 11.7499 8.89491 11.3081 9.24185 10.9824C9.5888 10.6567 10.0593 10.4737 10.55 10.4737H18.986C19.3738 10.4728 19.7522 10.5863 20.0676 10.7982C20.3829 11.0102 20.6194 11.3098 20.7435 11.6548L21.7425 14.5032C21.8666 14.8482 22.1031 15.1478 22.4184 15.3597C22.7338 15.5717 23.1122 15.6852 23.5 15.6842H36.45C36.9407 15.6842 37.4112 15.8672 37.7581 16.1929C38.1051 16.5187 38.3 16.9604 38.3 17.4211V34.7895Z" fill="black"/>
</svg>
