<svg width="48" height="48" viewBox="0 0 48 48" fill="none" xmlns="http://www.w3.org/2000/svg">
<path d="M36.45 12.2106H24.832L24.24 10.4737C23.8562 9.45459 23.1443 8.57275 22.203 7.95037C21.2616 7.32799 20.1374 6.99587 18.986 7.00004H10.55C9.07805 7.00004 7.66638 7.549 6.62556 8.52616C5.58473 9.50333 5 10.8286 5 12.2106V34.7895C5 36.1714 5.58473 37.4967 6.62556 38.4739C7.66638 39.451 9.07805 40 10.55 40H36.45C37.922 40 39.3336 39.451 40.3744 38.4739C41.4153 37.4967 42 36.1714 42 34.7895V17.4211C42 16.0392 41.4153 14.7138 40.3744 13.7367C39.3336 12.7595 37.922 12.2106 36.45 12.2106Z" fill="black"/>
</svg>
