<svg width="24" height="24" viewBox="0 0 24 24" fill="none" xmlns="http://www.w3.org/2000/svg">
<path d="M21.75 6.75C21.75 7.37335 21.6206 7.98991 21.3698 8.5606C21.1191 9.13129 20.7525 9.64367 20.2933 10.0652C19.8342 10.4868 19.2924 10.8084 18.7024 11.0096C18.1124 11.2108 17.4871 11.2872 16.866 11.234C15.79 11.143 14.602 11.305 13.916 12.138L6.76399 20.822C6.53838 21.097 6.25769 21.3217 5.93999 21.4817C5.62228 21.6417 5.2746 21.7334 4.91932 21.7508C4.56404 21.7683 4.20904 21.7112 3.87716 21.5832C3.54528 21.4552 3.24388 21.2592 2.99236 21.0076C2.74083 20.7561 2.54476 20.4547 2.41676 20.1228C2.28875 19.7909 2.23166 19.4359 2.24914 19.0807C2.26663 18.7254 2.35831 18.3777 2.51829 18.06C2.67826 17.7423 2.90298 17.4616 3.17799 17.236L11.862 10.084C12.695 9.398 12.857 8.21 12.766 7.134C12.6989 6.35217 12.8373 5.56638 13.1677 4.85459C13.498 4.14281 14.0088 3.52978 14.6492 3.07635C15.2896 2.62291 16.0375 2.34482 16.8186 2.26968C17.5997 2.19454 18.3869 2.32496 19.102 2.648L15.826 5.924C15.9527 6.47209 16.2308 6.97359 16.6286 7.37137C17.0264 7.76916 17.5279 8.04726 18.076 8.174L21.352 4.898C21.608 5.463 21.75 6.09 21.75 6.75Z" stroke="black" stroke-width="1.5" stroke-linecap="round" stroke-linejoin="round"/>
<path d="M4.867 19.125H4.875V19.133H4.867V19.125Z" stroke="black" stroke-width="1.5" stroke-linecap="round" stroke-linejoin="round"/>
</svg>
