<svg width="24" height="24" viewBox="0 0 24 24" fill="none" xmlns="http://www.w3.org/2000/svg">
<path fill-rule="evenodd" clip-rule="evenodd" d="M12 6.75C11.9998 5.93 12.1917 5.12135 12.5602 4.38886C12.9288 3.65636 13.4638 3.02038 14.1225 2.53189C14.7811 2.0434 15.545 1.71597 16.3529 1.57585C17.1608 1.43573 17.9904 1.48681 18.775 1.725C18.899 1.76257 19.0112 1.83163 19.1006 1.92545C19.19 2.01927 19.2535 2.13465 19.285 2.26034C19.3166 2.38603 19.315 2.51774 19.2804 2.64264C19.2459 2.76753 19.1796 2.88135 19.088 2.973L15.768 6.292C15.831 6.767 16.044 7.226 16.409 7.591C16.774 7.956 17.233 8.169 17.709 8.231L21.027 4.912C21.1187 4.82039 21.2325 4.7541 21.3574 4.71957C21.4823 4.68504 21.614 4.68346 21.7397 4.71498C21.8654 4.7465 21.9807 4.81005 22.0746 4.89944C22.1684 4.98882 22.2374 5.10099 22.275 5.225C22.5242 6.04586 22.5685 6.91528 22.4039 7.7572C22.2394 8.59912 21.8711 9.3879 21.3311 10.0545C20.7912 10.7211 20.0961 11.2453 19.3068 11.5811C18.5174 11.917 17.6577 12.0543 16.803 11.981C15.785 11.895 14.933 12.081 14.494 12.615L7.34401 21.3C7.05125 21.6538 6.68784 21.9425 6.27705 22.1477C5.86626 22.3529 5.41715 22.4701 4.95847 22.4917C4.49979 22.5133 4.04165 22.4389 3.61338 22.2732C3.18511 22.1076 2.79616 21.8543 2.47143 21.5296C2.1467 21.205 1.89334 20.8161 1.72759 20.3878C1.56183 19.9596 1.48732 19.5015 1.50884 19.0428C1.53036 18.5841 1.64742 18.135 1.85254 17.7241C2.05766 17.3133 2.34631 16.9498 2.70001 16.657L11.384 9.506C11.917 9.066 12.104 8.215 12.018 7.197C12.0058 7.04832 11.9998 6.89919 12 6.75ZM4.11701 19.125C4.11701 18.9261 4.19603 18.7353 4.33668 18.5947C4.47733 18.454 4.6681 18.375 4.86701 18.375H4.87501C5.07392 18.375 5.26469 18.454 5.40534 18.5947C5.54599 18.7353 5.62501 18.9261 5.62501 19.125V19.133C5.62501 19.3319 5.54599 19.5227 5.40534 19.6633C5.26469 19.804 5.07392 19.883 4.87501 19.883H4.86701C4.6681 19.883 4.47733 19.804 4.33668 19.6633C4.19603 19.5227 4.11701 19.3319 4.11701 19.133V19.125Z" fill="black"/>
</svg>
