<svg width="80" height="80" viewBox="0 0 80 80" fill="none" xmlns="http://www.w3.org/2000/svg">
<g clip-path="url(#clip0_198_109)">
<path d="M40 0C62.0912 0 80 17.9088 80 40C80 62.0912 62.0912 80 40 80C17.9088 80 0 62.0912 0 40C0 17.9088 17.9088 0 40 0Z" fill="#484848"/>
<path d="M59.1834 30.6312C58.7002 30.5328 58.197 30.6824 57.8458 31.0328L46.4674 42.636C45.3202 43.7848 41.4634 42.9456 38.8674 41.9328C37.853 39.3368 37.0146 35.4792 38.1586 34.3328L49.8186 23.0096C50.169 22.66 50.321 22.1584 50.2202 21.6752C50.1202 21.1904 49.7802 20.7896 49.3234 20.6072C42.0594 17.7184 33.793 19.4216 28.2674 24.9448C23.389 29.8232 21.581 36.664 23.013 43.0232C22.829 46.1752 19.9634 49.8688 18.4818 51.3752L7.09619 62.736C10.013 66.9504 13.717 70.5752 17.9978 73.4008L28.8434 62.5752C30.3642 61.0768 34.4714 58.252 37.6002 57.928C38.0722 57.9584 39.049 58.0232 39.2658 58.0712L39.2642 58.0528C45.365 58.9392 51.5274 56.9472 55.9106 52.5696C61.4362 47.0528 63.1426 38.7896 60.253 31.5304C60.0706 31.0696 59.669 30.732 59.1834 30.6312Z" fill="black"/>
<path d="M59.1834 29.8312C58.7002 29.7328 58.197 29.8824 57.8458 30.2328L46.4674 41.836C45.3202 42.9848 41.4634 42.1456 38.8674 41.1328C37.853 38.5368 37.0146 34.6792 38.1586 33.5328L49.8186 22.2096C50.169 21.86 50.321 21.3584 50.2202 20.8752C50.1202 20.3904 49.7802 19.9896 49.3234 19.8072C42.0594 16.9184 33.793 18.6216 28.2674 24.1448C23.389 29.0232 21.581 35.864 23.013 42.2232C22.829 45.3752 19.9634 49.0688 18.4818 50.5752L6.7666 62.264C9.6242 66.5208 13.2778 70.1976 17.5146 73.0824L28.8426 61.7744C30.3634 60.276 34.4706 57.4512 37.5994 57.1272C38.0714 57.1576 39.0482 57.2224 39.265 57.2704L39.2634 57.252C45.3642 58.1384 51.5266 56.1464 55.9098 51.7688C61.4354 46.252 63.1418 37.9888 60.2522 30.7296C60.0706 30.2696 59.669 29.932 59.1834 29.8312Z" fill="#EDEDED"/>
<path d="M61.4896 35.6448C61.5912 36.5136 61.6392 37.3848 61.6256 38.2528C61.5672 35.9888 61.1216 33.7144 60.252 31.5304C60.0696 31.0704 59.6688 30.732 59.1824 30.632C58.6992 30.5336 58.196 30.6832 57.8448 31.0336L46.4672 42.636C45.32 43.7848 41.4632 42.9456 38.8672 41.9328C38.7784 41.7056 38.6912 41.468 38.6056 41.2232L11.6328 68.1968C13.4304 70.0056 15.4 71.6424 17.5152 73.0824L28.8432 61.7744C30.364 60.276 34.4712 57.4512 37.6 57.1272C38.072 57.1576 39.0488 57.2224 39.2656 57.2704L39.264 57.252C45.3648 58.1384 51.5272 56.1464 55.9104 51.7688C60.216 47.4696 62.1896 41.504 61.4896 35.6448Z" fill="#E1E1E1"/>
<path d="M28.2674 24.9448C33.793 19.4216 42.0594 17.7184 49.3234 20.6072C49.7506 20.7776 50.0682 21.1432 50.1898 21.5864C50.2578 21.3584 50.2706 21.1152 50.2202 20.8752C50.1202 20.3904 49.7802 19.9896 49.3234 19.8072C42.0594 16.9184 33.793 18.6216 28.2674 24.1448C24.4186 27.9936 22.489 33.0648 22.5466 38.1568C22.6898 33.336 24.6202 28.592 28.2674 24.9448ZM18.4818 50.5752L6.7666 62.264L7.0954 62.736L18.481 51.3752C19.9618 49.868 22.8274 46.1752 23.0122 43.0232L22.957 42.7344C22.5218 45.7648 19.8834 49.1488 18.4818 50.5752Z" fill="#F4F4F4"/>
<path d="M22.969 54.1736L10.3242 66.8176C11.2202 67.808 12.165 68.7552 13.1554 69.652L25.8018 57.0056C26.5842 56.2224 26.5842 54.9552 25.8018 54.1728C25.0194 53.3904 23.7514 53.3912 22.969 54.1736Z" fill="#CCD0D2"/>
<path d="M22.969 54.1736L10.3242 66.8176L10.7114 67.2312L22.969 54.9736C23.7522 54.1912 25.0194 54.1912 25.8018 54.9736C26.0906 55.2624 26.2706 55.6176 26.3466 55.9904C26.4762 55.3536 26.2954 54.668 25.8018 54.1736C25.0194 53.3912 23.7514 53.3912 22.969 54.1736Z" fill="#B8BCBE"/>
</g>
<defs>
<clipPath id="clip0_198_109">
<rect width="80" height="80" fill="white"/>
</clipPath>
</defs>
</svg>
